<svg width="339" height="339" viewBox="0 0 339 339" fill="none" xmlns="http://www.w3.org/2000/svg">
<path fill-rule="evenodd" clip-rule="evenodd" d="M20.2618 0.419189C9.21615 0.419189 0.261841 9.3735 0.261841 20.4192V318.419C0.261841 329.465 9.21615 338.419 20.2618 338.419H318.262C329.308 338.419 338.262 329.465 338.262 318.419V20.4192C338.262 9.3735 329.308 0.419189 318.262 0.419189H20.2618Z" fill="url(#paint0_linear_1_243)" fill-opacity="0.9"/>
<mask id="mask0_1_243" style="mask-type:luminance" maskUnits="userSpaceOnUse" x="0" y="0" width="339" height="339">
<path fill-rule="evenodd" clip-rule="evenodd" d="M20.2618 0.419189C9.21615 0.419189 0.261841 9.3735 0.261841 20.4192V318.419C0.261841 329.465 9.21615 338.419 20.2618 338.419H318.262C329.308 338.419 338.262 329.465 338.262 318.419V20.4192C338.262 9.3735 329.308 0.419189 318.262 0.419189H20.2618Z" fill="white"/>
</mask>
<g mask="url(#mask0_1_243)">
<g opacity="0.41644">
<g opacity="0.643003">
<path fill-rule="evenodd" clip-rule="evenodd" d="M231.135 299.264L193.177 242.298L155.219 299.264H231.135Z" fill="#7A9FBC"/>
<path fill-rule="evenodd" clip-rule="evenodd" d="M230.607 299.264H193.177V242.298L230.607 299.264Z" fill="#598CBD"/>
<path fill-rule="evenodd" clip-rule="evenodd" d="M193.177 242.298V259.608C192.781 260.913 192.352 262.187 190.758 262.187C187.667 262.187 189.985 257.053 187.153 257.407C184.693 257.714 180.875 262.827 177.888 264.979L193.177 242.298Z" fill="#C6D9E4"/>
<path fill-rule="evenodd" clip-rule="evenodd" d="M202.139 256.331C200.97 255.564 200.062 255.139 199.705 255.355C198.233 256.245 200.195 258.737 198.233 259.449C196.269 260.162 197.496 256.423 195.043 256.957C193.856 257.215 193.53 258.474 193.177 259.704V242.298L202.139 256.331Z" fill="#9EB9DD"/>
<path fill-rule="evenodd" clip-rule="evenodd" d="M152.366 311.26C138.948 299.379 127.612 289.023 113.512 272.992C109.389 268.304 103.951 261.162 100.31 260.466C90.534 258.598 81.7074 268.227 73.7423 277.43C65.0526 287.47 56.3628 297.51 47.673 307.55C63.0841 314.479 79.4226 309.494 95.3896 310.205C112.063 310.948 128.423 317.946 145.068 319.711C147.51 319.97 150.146 320.031 152.168 317.76C154.191 315.488 154.989 309.97 153.073 307.46" fill="#CCEFEA"/>
<path fill-rule="evenodd" clip-rule="evenodd" d="M73.8634 277.288C81.5296 268.542 90.1017 259.404 99.3374 260.292V310.067C98.0968 309.949 96.8551 309.856 95.6113 309.801C79.5701 309.096 63.1557 314.042 47.673 307.168C56.4031 297.208 65.1333 287.248 73.8634 277.288Z" fill="#E2F8F7"/>
<path fill-rule="evenodd" clip-rule="evenodd" d="M177.888 285.55L142.567 232.276L107.245 285.55H177.888Z" fill="#7A9FBC"/>
<path fill-rule="evenodd" clip-rule="evenodd" d="M177.889 285.55H142.567V232.276L177.889 285.55Z" fill="#598CBD"/>
<path fill-rule="evenodd" clip-rule="evenodd" d="M142.567 232.276V248.379C142.198 249.593 141.799 250.778 140.314 250.778C137.437 250.778 139.595 246.002 136.958 246.331C134.668 246.617 131.113 251.373 128.333 253.375L142.567 232.276Z" fill="#C6D9E4"/>
<path fill-rule="evenodd" clip-rule="evenodd" d="M151.002 245.884C149.902 245.14 149.047 244.728 148.711 244.937C147.325 245.801 149.172 248.217 147.325 248.908C145.478 249.599 146.632 245.973 144.323 246.491C143.206 246.742 142.9 247.962 142.567 249.155V232.276L151.002 245.884Z" fill="#9EB9DD"/>
<path fill-rule="evenodd" clip-rule="evenodd" d="M106.191 338.824L61.9075 271.836L17.6234 338.824H106.191Z" fill="#7A9FBC"/>
<path fill-rule="evenodd" clip-rule="evenodd" d="M106.191 338.824H61.9072V271.836L106.191 338.824Z" fill="#598CBD"/>
<path fill-rule="evenodd" clip-rule="evenodd" d="M61.9071 271.836V292.366C61.4428 293.915 60.9404 295.425 59.0706 295.425C55.4476 295.425 58.1648 289.336 54.844 289.756C51.9601 290.121 47.4839 296.184 43.9827 298.737L61.9071 271.836Z" fill="#C6D9E4"/>
<path fill-rule="evenodd" clip-rule="evenodd" d="M72.9782 288.42C71.5342 287.514 70.4116 287.011 69.9709 287.267C68.1522 288.319 70.5767 291.264 68.1522 292.106C65.7272 292.947 67.2427 288.529 64.2117 289.16C62.7457 289.466 62.3437 290.953 61.9072 292.407V271.836L72.9782 288.42Z" fill="#9EB9DD"/>
<path fill-rule="evenodd" clip-rule="evenodd" d="M125.697 295.308C125.697 299.532 143.045 302.957 164.445 302.957C185.845 302.957 203.194 299.532 203.194 295.308C203.194 291.084 185.845 287.66 164.445 287.66C143.045 287.66 125.697 291.084 125.697 295.308Z" fill="#7BA0D1"/>
<path fill-rule="evenodd" clip-rule="evenodd" d="M203.194 294.517L164.445 212.232L125.697 294.517H203.194Z" fill="#7A9FBC"/>
<path fill-rule="evenodd" clip-rule="evenodd" d="M203.193 294.517H164.709V212.232L203.193 294.517Z" fill="#598CBD"/>
<path fill-rule="evenodd" clip-rule="evenodd" d="M163.654 212.232V237.594C163.259 239.506 162.83 241.372 161.235 241.372C158.145 241.372 160.462 233.85 157.63 234.369C155.17 234.819 151.352 242.309 148.366 245.463L163.654 212.232Z" fill="#DEFAFF"/>
<path fill-rule="evenodd" clip-rule="evenodd" d="M174.198 232.644C172.96 231.529 171.998 230.91 171.62 231.225C170.061 232.519 172.14 236.144 170.061 237.18C167.983 238.216 169.282 232.778 166.684 233.555C165.427 233.931 165.083 235.761 164.709 237.551V212.232L174.198 232.644Z" fill="#BCD2DF"/>
<path fill-rule="evenodd" clip-rule="evenodd" d="M212.77 304.999C197.691 291.751 184.953 280.204 169.107 262.328C164.474 257.101 158.363 249.138 154.272 248.362C143.286 246.278 133.367 257.015 124.416 267.277C114.651 278.472 104.885 289.667 95.12 300.863C112.439 308.588 130.799 303.029 148.742 303.823C167.479 304.651 185.864 312.455 204.569 314.422C207.313 314.711 210.276 314.779 212.548 312.246C214.82 309.713 215.718 303.56 213.565 300.762" fill="#E2F8F7"/>
<path fill-rule="evenodd" clip-rule="evenodd" d="M124.517 267.288C133.122 257.449 142.744 247.169 153.111 248.168V304.165C151.718 304.032 150.324 303.928 148.928 303.866C130.923 303.072 112.499 308.636 95.12 300.904C104.919 289.699 114.718 278.493 124.517 267.288Z" fill="#CCEFEA"/>
<path fill-rule="evenodd" clip-rule="evenodd" d="M259.385 310.733C245.967 298.851 234.631 288.496 220.531 272.464C216.408 267.776 210.97 260.635 207.33 259.939C197.553 258.07 188.727 267.7 180.761 276.902C172.072 286.943 163.382 296.983 154.692 307.023C170.103 313.952 186.442 308.966 202.409 309.678C219.082 310.42 235.442 317.419 252.088 319.184C254.529 319.442 257.165 319.504 259.188 317.232C261.21 314.961 262.009 309.442 260.093 306.933" fill="#E2F8F7"/>
<path fill-rule="evenodd" clip-rule="evenodd" d="M180.883 276.761C188.549 268.014 197.121 258.877 206.357 259.764V309.54C205.116 309.421 203.874 309.329 202.63 309.274C186.589 308.568 170.175 313.514 154.692 306.641C163.422 296.681 172.152 286.721 180.883 276.761Z" fill="#CCEFEA"/>
<path fill-rule="evenodd" clip-rule="evenodd" d="M152.25 260.442C151.347 260.312 150.642 259.418 149.732 259.493C149.134 259.543 148.664 260.004 148.097 260.197C147.046 260.553 145.902 259.935 144.794 260.037C143.692 260.139 142.669 260.949 141.587 260.721C141.13 260.625 140.736 260.353 140.304 260.182C139.115 259.709 137.749 260.027 136.493 259.768C135.475 259.558 134.462 258.97 133.463 259.252C132.935 259.401 132.51 259.775 132.106 260.138C131.764 260.444 131.422 260.751 131.08 261.058C131.029 261.104 130.976 261.155 130.969 261.222C130.959 261.34 131.098 261.413 131.214 261.451C134.538 262.535 138.158 261.609 141.665 261.609C144.537 261.61 147.373 262.239 150.243 262.335C150.75 262.352 151.276 262.349 151.742 262.153C152.207 261.957 152.601 261.519 152.583 261.027C152.575 260.816 152.487 260.601 152.317 260.469" fill="#CCEFEA"/>
<path fill-rule="evenodd" clip-rule="evenodd" d="M207.938 337.505C207.938 341.438 224.342 344.626 244.578 344.626C264.813 344.626 281.217 341.438 281.217 337.505C281.217 333.573 264.813 330.385 244.578 330.385C224.342 330.385 207.938 333.573 207.938 337.505Z" fill="#7BA0D1"/>
<path fill-rule="evenodd" clip-rule="evenodd" d="M281.217 337.769L244.578 260.232L207.938 337.769H281.217Z" fill="#7A9FBC"/>
<path fill-rule="evenodd" clip-rule="evenodd" d="M280.163 337.769H244.314V260.232L280.163 337.769Z" fill="#598CBD"/>
<path fill-rule="evenodd" clip-rule="evenodd" d="M244.314 260.232V284.385C243.932 286.207 243.519 287.984 241.979 287.984C238.995 287.984 241.233 280.82 238.498 281.314C236.123 281.743 232.436 288.876 229.553 291.88L244.314 260.232Z" fill="#DEFAFF"/>
<path fill-rule="evenodd" clip-rule="evenodd" d="M253.277 279.367C252.107 278.322 251.199 277.742 250.842 278.037C249.37 279.251 251.332 282.649 249.37 283.62C247.407 284.591 248.634 279.493 246.18 280.222C244.993 280.574 244.668 282.29 244.314 283.968V260.232L253.277 279.367Z" fill="#BCD2DF"/>
<path fill-rule="evenodd" clip-rule="evenodd" d="M157.328 342.78C157.328 346.713 173.732 349.901 193.968 349.901C214.203 349.901 230.607 346.713 230.607 342.78C230.607 338.848 214.203 335.66 193.968 335.66C173.732 335.66 157.328 338.848 157.328 342.78Z" fill="#7BA0D1"/>
<path fill-rule="evenodd" clip-rule="evenodd" d="M230.607 343.044L193.968 265.506L157.328 343.044H230.607Z" fill="#98B4DB"/>
<path fill-rule="evenodd" clip-rule="evenodd" d="M230.607 343.044H194.758V265.506L230.607 343.044Z" fill="#598CBD"/>
<path fill-rule="evenodd" clip-rule="evenodd" d="M194.759 265.506V289.66C194.377 291.481 193.963 293.258 192.423 293.258C189.44 293.258 191.677 286.095 188.942 286.589C186.567 287.018 182.881 294.151 179.998 297.154L194.759 265.506Z" fill="#DEFAFF"/>
<path fill-rule="evenodd" clip-rule="evenodd" d="M203.721 284.642C202.551 283.597 201.643 283.016 201.286 283.311C199.814 284.525 201.776 287.924 199.814 288.895C197.851 289.866 199.078 284.768 196.624 285.496C195.437 285.848 195.112 287.565 194.758 289.242V265.506L203.721 284.642Z" fill="#BCD2DF"/>
<path fill-rule="evenodd" clip-rule="evenodd" d="M129.387 293.462C129.387 295.793 145.202 297.682 164.709 297.682C184.216 297.682 200.03 295.793 200.03 293.462C200.03 291.132 184.216 289.243 164.709 289.243C145.202 289.243 129.387 291.132 129.387 293.462Z" fill="#9CB8DC"/>
<path fill-rule="evenodd" clip-rule="evenodd" d="M200.03 293.462L164.709 250.21L129.387 293.462H200.03Z" fill="#7A9FBC"/>
<path fill-rule="evenodd" clip-rule="evenodd" d="M200.558 293.462H165.236V250.21L200.558 293.462Z" fill="#598CBD"/>
<path fill-rule="evenodd" clip-rule="evenodd" d="M164.182 250.21V268.742C163.733 269.561 163.061 270.184 161.896 270.249C158.293 270.45 161.596 264.12 159.394 264.12C157.192 264.12 156.892 268.943 154.49 269.144C152.335 269.324 153.883 265.787 152.056 265.783L164.182 250.21Z" fill="#F7FEFF"/>
<path fill-rule="evenodd" clip-rule="evenodd" d="M176.307 264.14C175.557 264.193 175.015 264.432 174.934 264.99C174.628 267.095 176.259 269.502 173.609 270.203C170.959 270.905 169.737 264.088 167.596 264.289C166.148 264.424 166.191 266.991 165.236 268.699V250.21L176.307 264.14Z" fill="#D6E4EC"/>
<path fill-rule="evenodd" clip-rule="evenodd" d="M-0.300903 344.099C-0.300903 347.304 29.3217 349.901 65.8618 349.901C77.4024 349.901 88.253 349.642 97.6981 349.186C108.957 349.964 123.167 350.428 138.613 350.428C175.153 350.428 204.775 347.831 204.775 344.626C204.775 341.422 175.153 338.824 138.613 338.824C127.072 338.824 116.221 339.083 106.776 339.539C95.5169 338.761 81.3074 338.297 65.8618 338.297C29.3217 338.297 -0.300903 340.895 -0.300903 344.099ZM204.248 347.264C204.248 350.468 233.871 353.066 270.411 353.066C306.95 353.066 336.572 350.468 336.572 347.264C336.572 344.06 306.95 341.462 270.411 341.462C233.871 341.462 204.248 344.06 204.248 347.264Z" fill="#9CB8DC"/>
<path fill-rule="evenodd" clip-rule="evenodd" d="M334.991 348.319L277 277.638L219.009 348.319H334.991Z" fill="#7A9FBC"/>
<path fill-rule="evenodd" clip-rule="evenodd" d="M335.518 348.319H277.527V277.638L335.518 348.319Z" fill="#598CBD"/>
<path fill-rule="evenodd" clip-rule="evenodd" d="M277.527 277.638V307.387C276.766 308.701 275.627 309.702 273.651 309.806C267.542 310.129 273.142 299.967 269.409 299.967C265.675 299.967 265.166 307.71 261.093 308.032C257.439 308.321 260.064 302.643 256.967 302.636L277.527 277.638Z" fill="#F7FEFF"/>
<path fill-rule="evenodd" clip-rule="evenodd" d="M295.979 299.999C294.73 300.084 293.826 300.468 293.691 301.364C293.181 304.744 295.899 308.606 291.483 309.732C287.066 310.859 285.028 299.916 281.461 300.238C279.048 300.455 279.12 304.575 277.527 307.318V277.638L295.979 299.999Z" fill="#D6E4EC"/>
<path fill-rule="evenodd" clip-rule="evenodd" d="M247.26 337.634C233.842 325.752 222.506 315.397 208.406 299.365C204.283 294.677 198.845 287.535 195.205 286.84C185.428 284.971 176.602 294.6 168.636 303.803C159.947 313.843 151.257 323.884 142.567 333.924C157.978 340.852 174.317 335.867 190.284 336.578C206.957 337.321 223.317 344.32 239.963 346.084C242.404 346.343 245.04 346.404 247.063 344.133C249.085 341.861 249.884 336.343 247.968 333.833" fill="#E2F8F7"/>
<path fill-rule="evenodd" clip-rule="evenodd" d="M168.758 303.661C176.424 294.915 184.996 285.777 194.232 286.665V336.44C192.991 336.322 191.749 336.229 190.505 336.175C174.464 335.469 158.05 340.415 142.567 333.541C151.297 323.581 160.027 313.621 168.758 303.661Z" fill="#CCEFEA"/>
<path fill-rule="evenodd" clip-rule="evenodd" d="M86.6851 298.209C86.6851 300.831 103.916 302.957 125.17 302.957C146.424 302.957 163.655 300.831 163.655 298.209C163.655 295.587 146.424 293.462 125.17 293.462C103.916 293.462 86.6851 295.587 86.6851 298.209Z" fill="#98B4DB"/>
<path fill-rule="evenodd" clip-rule="evenodd" d="M163.655 297.682L125.17 247.045L86.6851 297.682H163.655Z" fill="#7A9FBC"/>
<path fill-rule="evenodd" clip-rule="evenodd" d="M163.127 297.682H125.17V247.045L163.127 297.682Z" fill="#598CBD"/>
<path fill-rule="evenodd" clip-rule="evenodd" d="M125.17 247.045V263.148C124.774 264.362 124.346 265.547 122.751 265.547C119.66 265.547 121.978 260.771 119.145 261.1C116.686 261.386 112.867 266.142 109.881 268.144L125.17 247.045Z" fill="#DEFAFF"/>
<path fill-rule="evenodd" clip-rule="evenodd" d="M134.132 259.802C132.963 259.106 132.055 258.719 131.697 258.915C130.225 259.725 132.188 261.99 130.225 262.638C128.262 263.285 129.489 259.886 127.036 260.372C125.848 260.607 125.523 261.751 125.17 262.869V247.045L134.132 259.802Z" fill="#BCD2DF"/>
<path fill-rule="evenodd" clip-rule="evenodd" d="M265.929 345.154L219.273 282.913L172.617 345.154H265.929Z" fill="#7A9FBC"/>
<path fill-rule="evenodd" clip-rule="evenodd" d="M266.456 345.154H219.536V282.913L266.456 345.154Z" fill="#598CBD"/>
<path fill-rule="evenodd" clip-rule="evenodd" d="M219.536 282.913V302.236C219.045 303.693 218.513 305.115 216.533 305.115C212.697 305.115 215.573 299.384 212.058 299.779C209.004 300.122 204.264 305.829 200.557 308.231L219.536 282.913Z" fill="#DEFAFF"/>
<path fill-rule="evenodd" clip-rule="evenodd" d="M231.135 298.221C229.622 297.385 228.447 296.921 227.984 297.157C226.079 298.128 228.619 300.847 226.079 301.624C223.539 302.401 225.126 298.322 221.951 298.905C220.415 299.187 219.994 300.559 219.536 301.902V282.913L231.135 298.221Z" fill="#BCD2DF"/>
<path fill-rule="evenodd" clip-rule="evenodd" d="M159.437 322.473L127.279 273.419L95.12 322.473H159.437Z" fill="#7A9FBC"/>
<path fill-rule="evenodd" clip-rule="evenodd" d="M159.964 322.473H127.806V273.419L159.964 322.473Z" fill="#598CBD"/>
<path fill-rule="evenodd" clip-rule="evenodd" d="M127.278 273.419V288.716C126.95 289.869 126.596 290.995 125.276 290.995C122.719 290.995 124.637 286.458 122.292 286.771C120.257 287.042 117.097 291.56 114.626 293.462L127.278 273.419Z" fill="#C6D9E4"/>
<path fill-rule="evenodd" clip-rule="evenodd" d="M135.713 285.325C134.682 284.675 133.88 284.314 133.565 284.497C132.266 285.253 133.998 287.367 132.266 287.971C130.534 288.576 131.617 285.403 129.452 285.856C128.405 286.076 128.117 287.143 127.806 288.188V273.419L135.713 285.325Z" fill="#9EB9DD"/>
<path fill-rule="evenodd" clip-rule="evenodd" d="M167.283 304.242C161.821 300.602 156.36 296.963 150.898 293.323C147.731 291.213 144.38 289.036 140.598 288.749C134.434 288.28 129.142 292.843 124.628 297.112C119.009 302.425 113.391 307.738 107.772 313.051C110.073 314.757 113.023 315.229 115.853 315.59C130.101 317.409 144.54 317.686 158.846 316.417C160.709 316.251 162.621 316.045 164.287 315.186C165.953 314.326 167.342 312.66 167.345 310.769C167.348 308.374 165.231 305.938 166.366 303.836" fill="#E2F8F7"/>
<path fill-rule="evenodd" clip-rule="evenodd" d="M124.587 297.112C129.075 292.856 134.335 288.309 140.458 288.744V317.198C132.228 317.172 123.999 316.639 115.834 315.594C113.01 315.233 110.067 314.76 107.772 313.054C113.377 307.74 118.982 302.426 124.587 297.112Z" fill="#CCEFEA"/>
<path fill-rule="evenodd" clip-rule="evenodd" d="M156.274 344.626L98.2828 273.946L40.2921 344.626H156.274Z" fill="#7A9FBC"/>
<path fill-rule="evenodd" clip-rule="evenodd" d="M156.274 344.626H98.2832V273.946L156.274 344.626Z" fill="#598CBD"/>
<path fill-rule="evenodd" clip-rule="evenodd" d="M98.283 273.946V303.695C97.522 305.009 96.3831 306.01 94.4073 306.114C88.298 306.437 93.898 296.275 90.1646 296.275C86.431 296.275 85.9219 304.017 81.849 304.34C78.1948 304.629 80.8204 298.95 77.7227 298.944L98.283 273.946Z" fill="#F7FEFF"/>
<path fill-rule="evenodd" clip-rule="evenodd" d="M116.735 296.307C115.486 296.392 114.582 296.776 114.447 297.672C113.937 301.051 116.655 304.914 112.239 306.04C107.822 307.167 105.784 296.224 102.217 296.546C99.8037 296.763 99.8757 300.883 98.2832 303.626V273.946L116.735 296.307Z" fill="#D6E4EC"/>
<path fill-rule="evenodd" clip-rule="evenodd" d="M219.536 345.154L161.546 274.474L103.555 345.154H219.536Z" fill="#7A9FBC"/>
<path fill-rule="evenodd" clip-rule="evenodd" d="M220.063 345.154H162.073V274.474L220.063 345.154Z" fill="#598CBD"/>
<path fill-rule="evenodd" clip-rule="evenodd" d="M162.073 274.474V304.222C161.312 305.536 160.173 306.537 158.197 306.641C152.088 306.964 157.688 296.802 153.954 296.802C150.221 296.802 149.712 304.545 145.639 304.868C141.985 305.157 144.61 299.478 141.512 299.471L162.073 274.474Z" fill="#F7FEFF"/>
<path fill-rule="evenodd" clip-rule="evenodd" d="M180.524 296.835C179.275 296.919 178.372 297.303 178.237 298.199C177.727 301.579 180.445 305.441 176.029 306.568C171.612 307.694 169.574 296.751 166.007 297.073C163.593 297.291 163.665 301.411 162.073 304.154V274.474L180.524 296.835Z" fill="#D6E4EC"/>
<path fill-rule="evenodd" clip-rule="evenodd" d="M239.569 251.042C239.569 249.171 241.519 247.654 243.923 247.654C244.409 247.654 244.874 247.719 245.311 247.833C245.393 244.764 248.359 242.298 252.008 242.298C255.481 242.298 258.336 244.53 258.676 247.39C259.109 247.251 259.583 247.173 260.081 247.173C261.636 247.173 262.962 247.925 263.498 248.987C263.807 248.919 264.133 248.88 264.471 248.88C266.441 248.88 268.038 250.122 268.038 251.655C268.038 253.187 266.441 254.43 264.471 254.43C264.388 254.43 264.308 254.424 264.227 254.42C264.162 254.426 264.097 254.43 264.03 254.43H243.441C243.189 254.43 242.95 254.382 242.729 254.297C240.906 253.893 239.569 252.59 239.569 251.042Z" fill="white"/>
<path fill-rule="evenodd" clip-rule="evenodd" d="M203.885 238.596C201.73 238.473 200.03 237.066 200.03 235.348C200.03 233.743 201.513 232.41 203.464 232.14C203.636 231.152 204.685 230.391 205.956 230.391C206.149 230.391 206.337 230.409 206.517 230.443C207.194 227.861 209.677 225.947 212.639 225.947C215.884 225.947 218.556 228.246 218.905 231.202C219.036 231.191 219.168 231.185 219.302 231.185C221.142 231.185 222.668 232.257 222.984 233.669C224.597 233.78 225.863 234.84 225.863 236.132C225.863 237.498 224.448 238.606 222.702 238.606C222.629 238.606 222.558 238.601 222.486 238.597C222.429 238.603 222.371 238.606 222.312 238.606H204.069C204.04 238.606 204.013 238.603 203.985 238.602C203.976 238.601 203.968 238.601 203.959 238.6C203.935 238.599 203.909 238.599 203.885 238.596Z" fill="white"/>
<path fill-rule="evenodd" clip-rule="evenodd" d="M101.374 244.926C99.3515 244.808 97.7559 243.46 97.7559 241.813C97.7559 240.275 99.1473 238.998 100.979 238.739C101.141 237.792 102.125 237.062 103.319 237.062C103.5 237.062 103.676 237.081 103.845 237.112C104.481 234.639 106.813 232.804 109.593 232.804C112.639 232.804 115.147 235.007 115.475 237.84C115.598 237.829 115.722 237.823 115.848 237.823C117.575 237.823 119.008 238.851 119.304 240.204C120.819 240.311 122.007 241.326 122.007 242.564C122.007 243.874 120.678 244.935 119.04 244.935C118.971 244.935 118.904 244.931 118.837 244.927C118.783 244.933 118.728 244.935 118.673 244.935H101.546C101.52 244.935 101.494 244.933 101.468 244.931C101.46 244.931 101.452 244.931 101.444 244.93C101.421 244.929 101.397 244.929 101.374 244.926Z" fill="white"/>
</g>
</g>
<path opacity="0.233073" fill-rule="evenodd" clip-rule="evenodd" d="M368.822 123.731C400.823 83.8622 599.654 116.456 650.641 260.708C666.369 305.206 692.599 309.689 692.599 309.689L368.822 256.434C368.822 256.434 336.821 163.6 368.822 123.731Z" fill="black" fill-opacity="0.03"/>
</g>
<defs>
<linearGradient id="paint0_linear_1_243" x1="17.8052" y1="51.5221" x2="17.8052" y2="354.435" gradientUnits="userSpaceOnUse">
<stop stop-color="#8DC1E9"/>
<stop offset="1" stop-color="white"/>
</linearGradient>
</defs>
</svg>
