<svg width="339" height="339" viewBox="0 0 339 339" fill="none" xmlns="http://www.w3.org/2000/svg">
<path fill-rule="evenodd" clip-rule="evenodd" d="M20.2618 0.114014C9.21615 0.114014 0.261841 9.06832 0.261841 20.114V318.114C0.261841 329.16 9.21615 338.114 20.2618 338.114H318.262C329.308 338.114 338.262 329.16 338.262 318.114V20.114C338.262 9.06833 329.308 0.114014 318.262 0.114014H20.2618Z" fill="url(#paint0_linear_2001_3)"/>
<g opacity="0.1">
<path d="M289.87 170.804C287.352 177.614 284.315 184.372 280.497 190.934C261.393 223.768 229.471 243.598 205.315 254.68C210.728 255.364 216.394 255.867 222.362 255.867C234.853 255.867 248.204 253.99 260.934 248.656C303.99 230.598 323.615 179.82 323.615 179.82C323.615 179.82 309.52 173.793 289.87 170.804Z" fill="white"/>
<path d="M55.2084 190.923C51.397 184.362 48.355 177.608 45.8424 170.804C26.1871 173.792 12.0923 179.82 12.0923 179.82C12.0923 179.82 31.711 230.598 74.7714 248.656C87.4951 253.989 100.846 255.867 113.342 255.867C119.309 255.867 124.98 255.364 130.392 254.68C106.232 243.598 74.3131 223.763 55.2084 190.923Z" fill="white"/>
<path d="M209.259 228.827C227.945 218.505 248.728 202.888 261.9 180.155C290.646 130.503 272.098 66.024 272.098 66.024C272.098 66.024 245.027 72.7485 218.082 90.7781C226.773 108.157 233.652 129.123 233.652 151.979C233.652 182.216 221.611 209.143 209.259 228.827Z" fill="white"/>
<path d="M126.449 228.827C114.096 209.143 102.055 182.216 102.055 151.979C102.055 129.123 108.934 108.157 117.625 90.7781C90.6806 72.7485 63.6094 66.024 63.6094 66.024C63.6094 66.024 45.0623 130.504 73.8085 180.155C86.9798 202.888 107.764 218.505 126.449 228.827Z" fill="white"/>
<path d="M167.574 57.0106C167.574 57.0106 123.632 99.3796 123.632 151.653C123.632 203.917 167.574 246.291 167.574 246.291C167.574 246.291 211.512 203.918 211.512 151.653C211.512 99.3796 167.574 57.0106 167.574 57.0106Z" fill="white"/>
</g>
<defs>
<linearGradient id="paint0_linear_2001_3" x1="-100.251" y1="11.6331" x2="-100.251" y2="550.658" gradientUnits="userSpaceOnUse">
<stop stop-color="#E8D5A2"/>
<stop offset="1" stop-color="#F3B093"/>
</linearGradient>
</defs>
</svg>
